<?xml version="1.0" encoding="UTF-8" standalone="no"?>
<!DOCTYPE svg PUBLIC "-//W3C//DTD SVG 1.1//EN"
 "http://www.w3.org/Graphics/SVG/1.1/DTD/svg11.dtd">
<!-- Generated by graphviz version 2.40.1 (0)
 -->
<!-- Title: flowchart Pages: 1 -->
<svg width="1514pt" height="260pt"
 viewBox="0.00 0.00 1513.60 260.00" xmlns="http://www.w3.org/2000/svg" xmlns:xlink="http://www.w3.org/1999/xlink">
<g id="graph0" class="graph" transform="scale(1 1) rotate(0) translate(4 256)">
<title>flowchart</title>
<polygon fill="#ffffff" stroke="transparent" points="-4,4 -4,-256 1509.6,-256 1509.6,4 -4,4"/>
<!-- v0 -->
<g id="node1" class="node">
<title>v0</title>
<ellipse fill="#000000" stroke="#000000" cx="794.6" cy="-233.4" rx="3.6" ry="3.6"/>
<text text-anchor="middle" x="726" y="-240.8" font-family="Times,serif" font-size="14.00" fill="#000000">Channel.fromPath</text>
</g>
<!-- v1 -->
<g id="node2" class="node">
<title>v1</title>
<ellipse fill="none" stroke="#000000" cx="794.6" cy="-189.3" rx="3.5" ry="3.5"/>
<text text-anchor="middle" x="762.1" y="-196.6" font-family="Times,serif" font-size="14.00" fill="#000000">ifEmpty</text>
</g>
<!-- v0&#45;&gt;v1 -->
<g id="edge1" class="edge">
<title>v0&#45;&gt;v1</title>
<path fill="none" stroke="#000000" d="M794.6,-229.6401C794.6,-223.8469 794.6,-212.444 794.6,-203.2354"/>
<polygon fill="#000000" stroke="#000000" points="798.1001,-203.0504 794.6,-193.0504 791.1001,-203.0505 798.1001,-203.0504"/>
</g>
<!-- v2 -->
<g id="node3" class="node">
<title>v2</title>
<ellipse fill="none" stroke="#000000" cx="794.6" cy="-131.2" rx="3.5" ry="3.5"/>
<text text-anchor="middle" x="775.6" y="-138.5" font-family="Times,serif" font-size="14.00" fill="#000000">map</text>
</g>
<!-- v1&#45;&gt;v2 -->
<g id="edge2" class="edge">
<title>v1&#45;&gt;v2</title>
<path fill="none" stroke="#000000" d="M794.6,-185.4879C794.6,-177.4527 794.6,-158.4286 794.6,-145.183"/>
<polygon fill="#000000" stroke="#000000" points="798.1001,-144.8015 794.6,-134.8015 791.1001,-144.8015 798.1001,-144.8015"/>
<text text-anchor="middle" x="832.6" y="-156.6" font-family="Times,serif" font-size="14.00" fill="#000000">images_ch</text>
</g>
<!-- v8 -->
<g id="node4" class="node">
<title>v8</title>
<ellipse fill="none" stroke="#000000" cx="305.6" cy="-58.6" rx="84.485" ry="18"/>
<text text-anchor="middle" x="305.6" y="-54.9" font-family="Times,serif" font-size="14.00" fill="#000000">qupath_stardist</text>
</g>
<!-- v2&#45;&gt;v8 -->
<g id="edge3" class="edge">
<title>v2&#45;&gt;v8</title>
<path fill="none" stroke="#000000" d="M791.0918,-130.1381C781.3763,-127.1713 753.3369,-118.4317 730.6,-109.6 715.2043,-103.6198 712.5879,-98.7446 696.6,-94.6 642.1088,-80.4739 495.191,-69.5911 397.7818,-63.6461"/>
<polygon fill="#000000" stroke="#000000" points="397.825,-60.1424 387.6323,-63.0336 397.4033,-67.1297 397.825,-60.1424"/>
<text text-anchor="middle" x="785.1" y="-98.4" font-family="Times,serif" font-size="14.00" fill="#000000">images_geo_ch</text>
</g>
<!-- v14 -->
<g id="node11" class="node">
<title>v14</title>
<ellipse fill="none" stroke="#000000" cx="1136.6" cy="-58.6" rx="102.8821" ry="18"/>
<text text-anchor="middle" x="1136.6" y="-54.9" font-family="Times,serif" font-size="14.00" fill="#000000">qupath_thresholder</text>
</g>
<!-- v2&#45;&gt;v14 -->
<g id="edge10" class="edge">
<title>v2&#45;&gt;v14</title>
<path fill="none" stroke="#000000" d="M798.0487,-129.5023C810.0714,-123.6586 851.374,-104.2081 887.6,-94.6 935.1911,-81.9776 989.1494,-73.4911 1034.6401,-67.9457"/>
<polygon fill="#000000" stroke="#000000" points="1035.2926,-71.3929 1044.8098,-66.7374 1034.4667,-64.4417 1035.2926,-71.3929"/>
<text text-anchor="middle" x="942.1" y="-98.4" font-family="Times,serif" font-size="14.00" fill="#000000">images_geo_ch</text>
</g>
<!-- v9 -->
<g id="node10" class="node">
<title>v9</title>
<ellipse fill="#000000" stroke="#000000" cx="305.6" cy="-1.8" rx="1.8" ry="1.8"/>
</g>
<!-- v8&#45;&gt;v9 -->
<g id="edge9" class="edge">
<title>v8&#45;&gt;v9</title>
<path fill="none" stroke="#000000" d="M305.6,-40.3155C305.6,-31.6139 305.6,-21.4551 305.6,-13.756"/>
<polygon fill="#000000" stroke="#000000" points="309.1001,-13.6036 305.6,-3.6036 302.1001,-13.6037 309.1001,-13.6036"/>
</g>
<!-- v3 -->
<g id="node5" class="node">
<title>v3</title>
<ellipse fill="#000000" stroke="#000000" cx="228.6" cy="-131.2" rx="3.6" ry="3.6"/>
</g>
<!-- v3&#45;&gt;v8 -->
<g id="edge4" class="edge">
<title>v3&#45;&gt;v8</title>
<path fill="none" stroke="#000000" d="M227.0647,-127.8402C224.1781,-120.9731 218.8151,-105.0935 225.6,-94.6 230.0191,-87.7655 236.0791,-82.2157 242.9024,-77.712"/>
<polygon fill="#000000" stroke="#000000" points="244.9609,-80.5659 251.8875,-72.5488 241.4732,-74.4966 244.9609,-80.5659"/>
<text text-anchor="middle" x="290.6" y="-98.4" font-family="Times,serif" font-size="14.00" fill="#000000">stardist_script_ch</text>
</g>
<!-- v4 -->
<g id="node6" class="node">
<title>v4</title>
<ellipse fill="#000000" stroke="#000000" cx="381.6" cy="-131.2" rx="3.6" ry="3.6"/>
</g>
<!-- v4&#45;&gt;v8 -->
<g id="edge5" class="edge">
<title>v4&#45;&gt;v8</title>
<path fill="none" stroke="#000000" d="M380.1942,-127.8433C377.1984,-120.9819 369.6318,-105.1124 359.6,-94.6 355.1078,-89.8926 349.8943,-85.477 344.5137,-81.4612"/>
<polygon fill="#000000" stroke="#000000" points="346.1982,-78.3678 336.0002,-75.4951 342.1809,-84.1003 346.1982,-78.3678"/>
<text text-anchor="middle" x="446.1" y="-98.4" font-family="Times,serif" font-size="14.00" fill="#000000">sd_minPercentile_ch</text>
</g>
<!-- v5 -->
<g id="node7" class="node">
<title>v5</title>
<ellipse fill="#000000" stroke="#000000" cx="553.6" cy="-131.2" rx="3.6" ry="3.6"/>
</g>
<!-- v5&#45;&gt;v8 -->
<g id="edge6" class="edge">
<title>v5&#45;&gt;v8</title>
<path fill="none" stroke="#000000" d="M552.0501,-127.8925C548.4141,-120.5361 538.5746,-102.8224 524.6,-94.6 502.573,-81.6397 444.5685,-72.4445 393.7875,-66.5924"/>
<polygon fill="#000000" stroke="#000000" points="394.068,-63.102 383.7404,-65.4664 393.2884,-70.0584 394.068,-63.102"/>
<text text-anchor="middle" x="616.6" y="-98.4" font-family="Times,serif" font-size="14.00" fill="#000000">sd_maxPercentile_ch</text>
</g>
<!-- v6 -->
<g id="node8" class="node">
<title>v6</title>
<ellipse fill="#000000" stroke="#000000" cx="3.6" cy="-131.2" rx="3.6" ry="3.6"/>
</g>
<!-- v6&#45;&gt;v8 -->
<g id="edge7" class="edge">
<title>v6&#45;&gt;v8</title>
<path fill="none" stroke="#000000" d="M4.756,-127.417C7.3094,-119.7694 14.2087,-102.5256 26.6,-94.6 56.6481,-75.381 143.2361,-66.3738 212.0616,-62.182"/>
<polygon fill="#000000" stroke="#000000" points="212.2992,-65.6742 222.0785,-61.5978 211.8916,-58.6861 212.2992,-65.6742"/>
<text text-anchor="middle" x="85.6" y="-98.4" font-family="Times,serif" font-size="14.00" fill="#000000">sd_threshold_ch</text>
</g>
<!-- v7 -->
<g id="node9" class="node">
<title>v7</title>
<ellipse fill="#000000" stroke="#000000" cx="144.6" cy="-131.2" rx="3.6" ry="3.6"/>
</g>
<!-- v7&#45;&gt;v8 -->
<g id="edge8" class="edge">
<title>v7&#45;&gt;v8</title>
<path fill="none" stroke="#000000" d="M144.7905,-127.5699C145.3799,-120.2043 147.7873,-103.4535 157.6,-94.6 168.36,-84.8918 197.0377,-76.8973 226.3172,-70.9288"/>
<polygon fill="#000000" stroke="#000000" points="227.1048,-74.3411 236.2448,-68.9828 225.7583,-67.4718 227.1048,-74.3411"/>
<text text-anchor="middle" x="188.1" y="-98.4" font-family="Times,serif" font-size="14.00" fill="#000000">ncpu_ch</text>
</g>
<!-- v15 -->
<g id="node16" class="node">
<title>v15</title>
<ellipse fill="#000000" stroke="#000000" cx="1136.6" cy="-1.8" rx="1.8" ry="1.8"/>
</g>
<!-- v14&#45;&gt;v15 -->
<g id="edge15" class="edge">
<title>v14&#45;&gt;v15</title>
<path fill="none" stroke="#000000" d="M1136.6,-40.3155C1136.6,-31.6139 1136.6,-21.4551 1136.6,-13.756"/>
<polygon fill="#000000" stroke="#000000" points="1140.1001,-13.6036 1136.6,-3.6036 1133.1001,-13.6037 1140.1001,-13.6036"/>
</g>
<!-- v10 -->
<g id="node12" class="node">
<title>v10</title>
<ellipse fill="#000000" stroke="#000000" cx="992.6" cy="-131.2" rx="3.6" ry="3.6"/>
</g>
<!-- v10&#45;&gt;v14 -->
<g id="edge11" class="edge">
<title>v10&#45;&gt;v14</title>
<path fill="none" stroke="#000000" d="M993.4528,-127.5761C995.3736,-120.2218 1000.7437,-103.4908 1011.6,-94.6 1020.0091,-87.7134 1039.7671,-80.9159 1061.1506,-75.1141"/>
<polygon fill="#000000" stroke="#000000" points="1062.267,-78.4398 1071.0549,-72.5217 1060.4945,-71.668 1062.267,-78.4398"/>
<text text-anchor="middle" x="1072.1" y="-98.4" font-family="Times,serif" font-size="14.00" fill="#000000">thresh_script_ch</text>
</g>
<!-- v11 -->
<g id="node13" class="node">
<title>v11</title>
<ellipse fill="#000000" stroke="#000000" cx="1136.6" cy="-131.2" rx="3.6" ry="3.6"/>
</g>
<!-- v11&#45;&gt;v14 -->
<g id="edge12" class="edge">
<title>v11&#45;&gt;v14</title>
<path fill="none" stroke="#000000" d="M1136.6,-127.2967C1136.6,-119.6869 1136.6,-102.2632 1136.6,-86.8684"/>
<polygon fill="#000000" stroke="#000000" points="1140.1001,-86.6802 1136.6,-76.6802 1133.1001,-86.6802 1140.1001,-86.6802"/>
<text text-anchor="middle" x="1192.6" y="-98.4" font-family="Times,serif" font-size="14.00" fill="#000000">th_pixelSize_ch</text>
</g>
<!-- v12 -->
<g id="node14" class="node">
<title>v12</title>
<ellipse fill="#000000" stroke="#000000" cx="1271.6" cy="-131.2" rx="3.6" ry="3.6"/>
</g>
<!-- v12&#45;&gt;v14 -->
<g id="edge13" class="edge">
<title>v12&#45;&gt;v14</title>
<path fill="none" stroke="#000000" d="M1270.4194,-127.5961C1267.8391,-120.2787 1260.9987,-103.6121 1249.6,-94.6 1239.4322,-86.5611 1227.4318,-80.2989 1215.115,-75.4258"/>
<polygon fill="#000000" stroke="#000000" points="1216.2534,-72.1154 1205.6597,-71.9636 1213.8465,-78.6886 1216.2534,-72.1154"/>
<text text-anchor="middle" x="1319.6" y="-98.4" font-family="Times,serif" font-size="14.00" fill="#000000">th_threshold_ch</text>
</g>
<!-- v13 -->
<g id="node15" class="node">
<title>v13</title>
<ellipse fill="#000000" stroke="#000000" cx="1410.6" cy="-131.2" rx="3.6" ry="3.6"/>
</g>
<!-- v13&#45;&gt;v14 -->
<g id="edge14" class="edge">
<title>v13&#45;&gt;v14</title>
<path fill="none" stroke="#000000" d="M1409.0601,-127.8754C1405.4445,-120.484 1395.6441,-102.7031 1381.6,-94.6 1357.8935,-80.922 1297.1626,-71.9445 1242.1008,-66.3754"/>
<polygon fill="#000000" stroke="#000000" points="1242.1896,-62.8674 1231.8958,-65.3748 1241.5065,-69.834 1242.1896,-62.8674"/>
<text text-anchor="middle" x="1451.1" y="-98.4" font-family="Times,serif" font-size="14.00" fill="#000000">th_minArea_ch</text>
</g>
</g>
</svg>
